<?xml version="1.0" encoding="UTF-8" standalone="no"?>
<!DOCTYPE svg PUBLIC "-//W3C//DTD SVG 1.1//EN" "http://www.w3.org/Graphics/SVG/1.1/DTD/svg11.dtd">
<svg width="100%" height="100%" viewBox="0 0 620 76" version="1.1" xmlns="http://www.w3.org/2000/svg" xmlns:xlink="http://www.w3.org/1999/xlink" xml:space="preserve" xmlns:serif="http://www.serif.com/" style="fill-rule:evenodd;clip-rule:evenodd;stroke-linejoin:round;stroke-miterlimit:2;">
    <g transform="matrix(1,0,0,1,-170.181,-501.971)">
        <g transform="matrix(1,0,0,1,222.987,577.373)">
            <path d="M0,-75.401C7.027,-75.401 13.812,-74.694 20.358,-73.283C26.902,-71.87 32.655,-69.889 37.615,-67.341L40.302,-50.084L38.958,-50.084C36.616,-55.111 33.412,-59.332 29.348,-62.742C25.282,-66.152 20.684,-68.649 15.552,-70.234C10.419,-71.818 5.167,-72.611 -0.207,-72.611C-7.166,-72.611 -13.589,-71.198 -19.479,-68.374C-25.369,-65.548 -30.107,-61.484 -33.688,-56.18C-37.271,-50.875 -39.062,-44.71 -39.062,-37.683C-39.062,-30.863 -37.46,-24.851 -34.256,-19.65C-31.053,-14.448 -26.472,-10.402 -20.513,-7.508C-14.554,-4.615 -7.683,-3.168 0.104,-3.168C7.818,-3.168 15.087,-4.338 21.908,-6.681C28.728,-9.023 34.619,-12.812 39.579,-18.048L41.439,-16.189C37.855,-12.399 33.756,-9.317 29.142,-6.94C24.525,-4.563 19.72,-2.823 14.726,-1.721C9.73,-0.62 4.581,-0.068 -0.724,-0.068C-10.3,0 -19.05,-1.566 -26.971,-4.77C-34.895,-7.973 -41.18,-12.399 -45.83,-18.048C-50.48,-23.697 -52.806,-30.07 -52.806,-37.166C-52.806,-44.881 -50.377,-51.633 -45.52,-57.421C-40.664,-63.207 -34.188,-67.651 -26.093,-70.751C-17.999,-73.851 -9.3,-75.401 0,-75.401" style="fill:rgb(239,239,239);fill-rule:nonzero;"/>
        </g>
        <g transform="matrix(1,0,0,1,295.944,504.659)">
            <path d="M0,70.063L1.756,69.752C4.511,69.409 6.836,68.926 8.732,68.306C10.626,67.686 12.176,66.653 13.382,65.206C14.586,63.759 15.19,61.899 15.19,59.625L15.19,10.437C15.19,8.163 14.586,6.303 13.382,4.856C12.176,3.41 10.626,2.376 8.732,1.756C6.836,1.136 4.511,0.655 1.756,0.31L0,0L0,-1.137L42.575,-1.137L42.575,0L40.301,0.31C37.683,0.655 35.427,1.172 33.533,1.86C31.637,2.549 30.139,3.583 29.038,4.959C27.935,6.339 27.384,8.163 27.384,10.437L27.384,59.625C27.384,61.899 27.935,63.725 29.038,65.102C30.139,66.482 31.637,67.514 33.533,68.203C35.427,68.892 37.683,69.409 40.301,69.752L42.575,70.063L42.575,71.2L0,71.2L0,70.063Z" style="fill:rgb(239,239,239);fill-rule:nonzero;"/>
        </g>
        <g transform="matrix(1,0,0,1,457.047,551.058)">
            <path d="M0,-22.735L-1.24,-22.735C-1.447,-26.869 -2.273,-30.589 -3.721,-33.896C-5.167,-37.202 -7.337,-39.854 -10.23,-41.853C-13.124,-43.85 -16.673,-44.85 -20.875,-44.85L-36.375,-44.85L-36.375,13.226C-36.375,15.569 -35.722,17.464 -34.412,18.91C-33.104,20.356 -31.347,21.408 -29.142,22.061C-26.938,22.718 -24.388,23.217 -21.495,23.56L-20.151,23.664L-20.151,24.801L-65.103,24.801L-65.103,23.664L-63.76,23.56C-60.866,23.217 -58.335,22.733 -56.165,22.113C-53.995,21.493 -52.204,20.444 -50.791,18.962C-49.38,17.481 -48.673,15.569 -48.673,13.226L-48.673,-44.85L-64.379,-44.85C-68.513,-44.85 -72.027,-43.85 -74.92,-41.853C-77.813,-39.854 -80.001,-37.202 -81.482,-33.896C-82.964,-30.589 -83.808,-26.869 -84.014,-22.735L-85.254,-22.735L-85.254,-47.536L0,-47.536L0,-22.735Z" style="fill:rgb(239,239,239);fill-rule:nonzero;"/>
        </g>
        <g transform="matrix(1,0,0,1,492.595,504.659)">
            <path d="M0,70.063L1.757,69.752C4.511,69.409 6.836,68.926 8.732,68.306C10.626,67.686 12.176,66.653 13.382,65.206C14.587,63.759 15.191,61.899 15.191,59.625L15.191,10.437C15.191,8.163 14.587,6.303 13.382,4.856C12.176,3.41 10.626,2.376 8.732,1.756C6.836,1.136 4.511,0.655 1.757,0.31L0,0L0,-1.137L42.575,-1.137L42.575,0L40.302,0.31C37.683,0.655 35.427,1.172 33.533,1.86C31.638,2.549 30.139,3.583 29.038,4.959C27.936,6.339 27.385,8.163 27.385,10.437L27.385,59.625C27.385,61.899 27.936,63.725 29.038,65.102C30.139,66.482 31.638,67.514 33.533,68.203C35.427,68.892 37.683,69.409 40.302,69.752L42.575,70.063L42.575,71.2L0,71.2L0,70.063Z" style="fill:rgb(239,239,239);fill-rule:nonzero;"/>
        </g>
        <g transform="matrix(1,0,0,1,682.84,576.375)">
            <path d="M0,-71.717L-2.273,-71.407C-5.03,-71.061 -7.441,-70.562 -9.507,-69.908C-11.574,-69.253 -13.228,-68.219 -14.468,-66.808C-15.708,-65.396 -16.327,-63.553 -16.327,-61.28L-16.327,-12.091C-16.327,-9.818 -15.64,-7.957 -14.261,-6.511C-12.884,-5.064 -11.109,-3.995 -8.938,-3.307C-6.769,-2.618 -4.272,-2.135 -1.447,-1.861C-1.24,-1.791 -1,-1.722 -0.724,-1.654C-0.449,-1.584 -0.207,-1.551 0,-1.551L0,-0.517L-28.832,-0.517L-28.728,-10.747C-32.518,-6.889 -37.305,-3.944 -43.092,-1.912C-48.879,0.119 -55.183,1.137 -62.003,1.137C-69.1,1.137 -75.248,0.137 -80.449,-1.861C-85.651,-3.858 -89.733,-7.164 -92.694,-11.781C-95.657,-16.396 -97.138,-22.529 -97.138,-30.175L-97.138,-61.28C-97.138,-63.553 -97.827,-65.413 -99.205,-66.86C-100.583,-68.307 -102.34,-69.34 -104.475,-69.96C-106.611,-70.58 -109.057,-71.061 -111.812,-71.407L-113.568,-71.717L-113.568,-72.854L-68.513,-72.854L-68.513,-71.717L-70.684,-71.407C-73.577,-71.061 -76.023,-70.545 -78.02,-69.857C-80.019,-69.167 -81.655,-68.134 -82.929,-66.757C-84.204,-65.378 -84.84,-63.553 -84.84,-61.28L-84.84,-30.175C-84.84,-23.355 -83.67,-17.842 -81.327,-13.641C-78.986,-9.438 -75.799,-6.442 -71.768,-4.651C-67.738,-2.859 -62.969,-1.964 -57.456,-1.964C-52.221,-1.964 -47.416,-2.928 -43.041,-4.858C-38.666,-6.785 -35.17,-9.541 -32.552,-13.124C-29.934,-16.705 -28.694,-20.943 -28.832,-25.835L-28.728,-61.28C-28.728,-63.691 -29.384,-65.585 -30.691,-66.964C-32.001,-68.341 -33.706,-69.34 -35.807,-69.96C-37.909,-70.58 -40.405,-71.061 -43.298,-71.407L-45.159,-71.717L-45.159,-72.854L0,-72.854L0,-71.717Z" style="fill:rgb(239,239,239);fill-rule:nonzero;"/>
        </g>
        <g transform="matrix(1,0,0,1,752.178,501.971)">
            <path d="M0,75.437C-8.129,75.437 -15.397,74.456 -21.804,72.492C-28.211,70.529 -33.344,67.893 -37.202,64.586L-40.198,41.232L-38.855,41.232C-36.788,48.465 -33.964,54.425 -30.381,59.11C-26.8,63.795 -22.459,67.24 -17.36,69.443C-12.263,71.649 -6.2,72.75 0.827,72.75C5.648,72.75 10.006,72.269 13.899,71.303C17.791,70.339 20.909,68.893 23.251,66.963C25.592,65.036 26.765,62.589 26.765,59.626C26.765,57.215 25.577,55.097 23.2,53.271C20.823,51.447 17.877,49.844 14.364,48.465C10.851,47.088 6.027,45.401 -0.104,43.402C-7.82,40.922 -13.968,38.684 -18.549,36.685C-23.131,34.688 -27.075,32.208 -30.381,29.245C-33.688,26.284 -35.341,22.874 -35.341,19.015C-35.341,15.02 -33.861,11.609 -30.898,8.784C-27.937,5.96 -23.94,3.79 -18.911,2.274C-13.883,0.759 -8.233,0 -1.963,0C4.305,0 9.644,0.517 14.054,1.55C18.462,2.584 22.562,4.1 26.352,6.097L31.001,25.111L29.658,25.111C27.315,19.944 24.525,15.674 21.288,12.297C18.049,8.923 14.467,6.494 10.541,5.012C6.614,3.532 2.617,2.791 -1.447,2.791C-4.753,2.723 -8.164,3.066 -11.677,3.824C-15.19,4.583 -18.171,5.805 -20.616,7.492C-23.062,9.181 -24.284,11.403 -24.284,14.158C-24.354,16.777 -23.147,19.118 -20.667,21.185C-18.187,23.251 -15.139,25.026 -11.522,26.506C-7.905,27.989 -2.929,29.762 3.41,31.828C10.851,34.034 16.826,36.065 21.339,37.925C25.851,39.786 29.726,42.111 32.965,44.901C36.202,47.691 37.822,51.015 37.822,54.873C37.822,59.419 36.168,63.227 32.862,66.291C29.555,69.358 25.06,71.649 19.376,73.164C13.692,74.678 7.234,75.437 0,75.437" style="fill:rgb(239,239,239);fill-rule:nonzero;"/>
        </g>
    </g>
</svg>
