<?xml version="1.0" standalone="no"?>
<!DOCTYPE svg PUBLIC "-//W3C//DTD SVG 20010904//EN"
 "http://www.w3.org/TR/2001/REC-SVG-20010904/DTD/svg10.dtd">
<svg version="1.0" xmlns="http://www.w3.org/2000/svg"
 width="893.000000pt" height="893.000000pt" viewBox="0 0 893.000000 893.000000"
 preserveAspectRatio="xMidYMid meet">
<metadata>
Created by potrace 1.14, written by Peter Selinger 2001-2017
</metadata>
<g transform="translate(0.000000,893.000000) scale(0.100000,-0.100000)"
fill="#000000" stroke="none">
<path d="M4080 7200 c-125 -10 -251 -22 -271 -25 -9 -2 -40 -6 -70 -10 -30 -3
-103 -15 -164 -25 -60 -11 -125 -22 -142 -25 -18 -3 -63 -12 -100 -21 -38 -9
-75 -17 -83 -19 -8 -2 -15 -4 -15 -5 0 -1 -9 -3 -20 -4 -96 -14 -534 -156
-707 -230 -21 -9 -41 -17 -45 -18 -5 0 -66 -30 -138 -66 -71 -36 -131 -63
-131 -61 -1 2 -11 -4 -21 -14 -11 -9 -23 -14 -26 -10 -4 3 -7 1 -7 -6 0 -7 -4
-9 -10 -6 -5 3 -10 3 -10 -2 0 -4 -26 -21 -58 -38 -31 -16 -68 -37 -82 -45
-14 -9 -59 -39 -100 -66 -41 -27 -79 -51 -85 -53 -5 -2 -15 -11 -22 -20 -6 -9
-15 -16 -20 -16 -10 0 -134 -93 -151 -114 -7 -9 -14 -14 -15 -12 -1 2 -15 -8
-32 -22 -73 -63 -90 -77 -98 -77 -5 0 -5 -4 -2 -10 3 -5 2 -10 -3 -10 -17 0
-225 -214 -307 -316 -16 -20 -38 -45 -48 -55 -9 -11 -15 -19 -12 -19 3 0 -6
-12 -20 -27 -14 -15 -25 -33 -25 -40 0 -7 -4 -13 -10 -13 -5 0 -17 -15 -26
-32 -9 -18 -20 -35 -23 -38 -28 -23 -232 -450 -215 -450 2 0 0 -9 -6 -21 -6
-11 -13 -28 -16 -37 -2 -9 -15 -58 -29 -109 -40 -154 -56 -289 -54 -477 1
-155 5 -208 25 -316 4 -19 8 -46 10 -60 3 -21 9 -46 38 -145 2 -5 6 -23 11
-40 4 -16 12 -36 18 -42 5 -7 6 -13 2 -13 -4 0 -2 -7 5 -15 7 -8 9 -15 4 -15
-4 0 -3 -5 4 -12 7 -7 12 -17 12 -24 0 -7 19 -52 42 -101 23 -48 41 -91 40
-95 -1 -5 3 -8 8 -8 6 0 10 -6 10 -13 0 -8 23 -51 50 -97 28 -46 50 -85 50
-87 0 -7 115 -163 138 -189 7 -8 11 -14 8 -14 -2 0 13 -18 35 -40 22 -22 37
-40 35 -40 -3 0 24 -30 59 -67 36 -38 65 -71 65 -75 0 -5 4 -8 9 -8 5 0 27
-19 50 -41 22 -23 41 -45 41 -50 0 -5 4 -9 10 -9 9 0 76 -54 142 -115 15 -14
31 -25 37 -25 5 0 11 -4 13 -8 3 -9 136 -109 183 -138 17 -10 32 -21 35 -24
12 -12 87 -60 95 -60 5 0 16 -6 24 -14 14 -13 77 -49 169 -97 18 -10 39 -23
47 -29 8 -6 20 -13 27 -14 20 -4 115 -51 132 -65 8 -7 21 -14 28 -15 7 -1 31
-11 53 -20 68 -31 229 -97 245 -101 8 -3 76 -25 150 -51 74 -25 142 -47 150
-49 8 -2 15 -4 15 -5 0 -1 7 -3 15 -5 8 -3 67 -18 130 -35 139 -37 322 -75
450 -96 52 -8 105 -16 117 -19 13 -2 67 -9 120 -15 54 -6 114 -12 133 -15 223
-26 892 -26 1025 -1 11 2 56 7 100 11 44 4 89 9 100 11 10 2 37 6 60 9 22 3
47 8 55 10 8 3 35 7 60 10 52 6 249 45 313 61 12 3 32 7 45 9 12 2 46 10 75
19 161 48 264 78 280 81 9 2 23 7 30 12 6 4 18 8 25 9 8 2 21 6 30 10 9 4 23
8 30 10 8 1 21 6 30 10 9 4 20 8 25 9 4 2 9 4 12 5 3 1 8 3 13 5 4 1 20 7 35
13 16 7 31 12 34 12 3 0 27 10 52 21 25 12 55 25 66 29 11 4 49 21 85 38 36
18 70 32 77 32 6 0 13 3 15 8 2 4 44 27 93 51 50 24 102 52 116 62 14 10 29
16 33 12 3 -3 6 -1 6 6 0 7 5 9 10 6 6 -3 10 -2 10 2 0 5 17 17 38 28 20 11
43 26 50 32 7 7 20 13 28 13 8 0 14 3 14 8 0 4 23 21 51 37 27 17 62 40 77 52
15 13 30 23 34 23 4 0 16 10 28 22 11 12 20 19 20 15 0 -4 11 3 25 15 58 52
65 58 73 58 4 0 14 9 22 20 8 11 18 20 22 20 9 0 65 49 101 88 11 12 27 22 34
22 7 0 13 3 13 8 0 4 44 53 98 109 99 104 141 150 142 158 0 3 8 13 18 23 9
10 28 33 42 51 14 18 33 42 43 52 9 11 14 19 10 19 -5 0 -3 4 2 8 14 10 77
102 70 102 -3 0 3 10 15 22 11 12 20 28 20 35 0 7 4 13 8 13 5 0 16 19 26 43
11 23 25 49 32 57 7 8 13 20 14 25 1 6 18 43 36 83 42 90 111 292 130 382 34
153 42 246 40 445 -2 116 -7 226 -10 245 -4 19 -9 44 -11 55 -2 11 -9 43 -15
70 -5 28 -13 61 -16 75 -7 35 -62 200 -75 225 -6 12 -11 27 -13 35 -1 8 -14
39 -29 69 -15 30 -27 60 -27 67 0 7 -4 14 -8 16 -4 2 -18 23 -30 48 -65 131
-178 299 -270 400 -12 14 -39 46 -60 72 -20 26 -43 47 -49 48 -7 0 -13 5 -13
11 0 12 -95 107 -175 177 -28 24 -60 52 -72 63 -24 22 -149 119 -198 154 -15
11 -40 31 -56 43 -16 13 -29 21 -29 17 0 -3 -10 3 -22 15 -12 11 -25 20 -29
20 -4 0 -37 20 -72 44 -36 25 -67 43 -70 40 -2 -2 -10 2 -17 11 -7 8 -19 15
-26 15 -8 0 -14 5 -14 10 0 6 -6 10 -14 10 -8 0 -21 6 -28 13 -7 6 -47 28 -88
47 -41 19 -77 38 -80 41 -7 8 -277 129 -288 129 -5 0 -36 12 -68 26 -33 14
-59 25 -59 24 0 -2 -39 11 -60 21 -12 6 -27 11 -35 13 -8 1 -58 16 -111 34
-174 56 -424 119 -549 138 -19 3 -48 9 -65 14 -16 4 -52 11 -78 15 -27 4 -56
8 -65 9 -15 3 -79 12 -160 22 -39 4 -152 15 -257 23 -122 10 -644 10 -775 1z"/>
</g>
</svg>
