<svg width="57" height="48" viewBox="0 0 57 48" fill="none" xmlns="http://www.w3.org/2000/svg">
<path d="M21.1305 46.6385L3.42457 22.2424C2.76429 21.3326 3.87551 20.1937 4.80121 20.8315L21.3004 32.1982C21.7532 32.5101 22.3728 32.398 22.6876 31.9473L38.0681 9.9252C38.7711 8.91865 40.3189 9.81982 39.7906 10.9281L22.8425 46.4815C22.5161 47.1662 21.5761 47.2524 21.1305 46.6385Z" fill="#A0A0A0"/>
<path d="M33.1305 46.6385L15.4246 22.2424C14.7643 21.3326 15.8755 20.1937 16.8012 20.8315L33.3004 32.1982C33.7532 32.5101 34.3728 32.398 34.6876 31.9473L50.0681 9.9252C50.7711 8.91865 52.3189 9.81982 51.7906 10.9281L34.8425 46.4815C34.5161 47.1662 33.5761 47.2524 33.1305 46.6385Z" fill="white"/>
</svg>
